<svg width="161" height="160" viewBox="0 0 161 160" fill="none" xmlns="http://www.w3.org/2000/svg">
<path d="M77.3666 83.7499C77.8666 82.2499 78.1665 80.65 78.1665 78.95V71.1499C78.1665 63.1499 71.6665 56.6499 63.6665 56.6499C55.6665 56.6499 49.1665 63.1499 49.1665 71.1499V78.95C49.1665 80.65 49.4666 82.2499 49.9666 83.7499H77.3666Z" fill="#FFE799"/>
<path fill-rule="evenodd" clip-rule="evenodd" d="M98.5665 79.3498L95.2666 76.0498L91.2666 76.2498L90.6665 94.8498L95.3666 93.9498L98.5665 90.7498C100.067 89.2498 100.867 87.2498 100.867 85.1498V84.8498C100.867 82.7498 100.067 80.8498 98.5665 79.3498ZM75.8666 119.85C79.2666 119.85 82.0665 122.35 82.6665 125.65L83.0665 127.95C83.0665 133.05 77.8666 139.25 74.8666 139.25L71.0665 136.55L59.3666 124.95C58.7666 124.35 58.4666 123.65 58.4666 122.85C58.4666 121.15 59.8666 119.85 61.4666 119.85H75.8666ZM33.2666 55.5498C35.3666 60.0498 33.2666 64.1498 31.4666 64.1498C26.1666 64.1498 23.2666 59.8498 23.2666 59.8498C28.1666 61.6498 33.2666 58.1498 33.2666 55.5498ZM97.1665 69.6498C97.3665 69.8498 97.6666 69.9498 97.8666 69.9498C98.0666 69.9498 98.1666 69.9498 98.2666 69.8498C99.5666 69.0498 100.367 67.6498 100.367 66.1498H99.8666C99.8666 67.4498 99.1665 68.6498 97.9665 69.3498C97.8665 69.4498 97.6665 69.3498 97.5665 69.2498C96.8665 68.4498 95.0666 66.3498 93.3666 64.3498C93.1666 64.2498 93.2666 63.9498 93.3666 63.8498C94.0666 63.2498 94.9665 62.0498 94.9665 60.7498H94.4665C94.4665 61.8498 93.6665 62.9498 93.0665 63.5498C92.6665 63.8498 92.6665 64.3498 92.9665 64.7498C94.6665 66.7498 96.4665 68.8498 97.1665 69.6498Z" fill="#CCCCCC"/>
<path fill-rule="evenodd" clip-rule="evenodd" d="M49.8487 85.7498C52.4341 90.9721 57.8521 94.4498 63.7668 94.4498C69.6814 94.4498 75.0993 90.9721 77.6847 85.7498H75.4059C73.025 89.8477 68.6127 92.4498 63.7668 92.4498C58.9208 92.4498 54.5084 89.8477 52.1275 85.7498H49.8487ZM49.1067 83.7498H51.1762C51.1386 83.6504 51.1021 83.5504 51.0667 83.4498C50.8667 82.9498 50.2668 82.6498 49.7668 82.8498C49.3963 82.9979 49.1355 83.3657 49.1067 83.7498ZM76.3572 83.7498H78.4267C78.3979 83.3657 78.1372 82.9979 77.7668 82.8498C77.2668 82.6498 76.6667 82.9498 76.4667 83.4498C76.4313 83.5504 76.3948 83.6504 76.3572 83.7498Z" fill="#FFE799"/>
<path fill-rule="evenodd" clip-rule="evenodd" d="M100.267 27.25L112.467 39.35L140.467 13.05C141.267 12.35 141.367 11.05 140.567 10.25C139.867 9.45001 138.567 9.34998 137.767 10.15L112.567 33.85L103.067 24.45L100.267 27.25ZM40.7666 83.75H88.2666C88.8666 83.75 89.2666 83.35 89.2666 82.75C89.2666 82.15 88.8666 81.75 88.2666 81.75H40.7666C40.1666 81.75 39.7666 82.15 39.7666 82.75C39.7666 83.35 40.1666 83.75 40.7666 83.75ZM58.2666 76.55C57.6666 76.55 57.2666 76.15 57.2666 75.55V74.15C57.2666 73.55 57.6666 73.15 58.2666 73.15C58.8666 73.15 59.2666 73.55 59.2666 74.15V75.55C59.2666 76.05 58.7666 76.55 58.2666 76.55ZM60.2666 70.45C60.4666 70.65 60.6665 70.75 60.9665 70.75C61.1665 70.75 61.4665 70.65 61.5665 70.45C61.9665 70.05 61.9665 69.45 61.5665 69.05C60.6665 68.15 59.4665 67.65 58.1665 67.65C56.8665 67.65 55.6666 68.15 54.7666 69.05C54.3666 69.45 54.3666 70.05 54.7666 70.45C55.1666 70.85 55.7665 70.85 56.1665 70.45C57.2665 69.35 59.1666 69.35 60.2666 70.45ZM69.5665 76.55C68.9665 76.55 68.5665 76.15 68.5665 75.55V74.15C68.5665 73.55 68.9665 73.15 69.5665 73.15C70.1665 73.15 70.5665 73.55 70.5665 74.15V75.55C70.5665 76.05 70.0665 76.55 69.5665 76.55ZM71.5665 70.45C71.7665 70.65 71.9666 70.75 72.2666 70.75C72.5666 70.75 72.7665 70.65 72.8665 70.45C73.2665 70.05 73.2665 69.45 72.8665 69.05C71.9665 68.15 70.7665 67.65 69.4665 67.65C68.1665 67.65 66.9665 68.15 66.0665 69.05C65.6665 69.45 65.6665 70.05 66.0665 70.45C66.4665 70.85 67.0665 70.85 67.4665 70.45C68.5665 69.35 70.4665 69.35 71.5665 70.45Z" fill="#E0AD00"/>
<path d="M122.167 109.15L115.367 102.35C113.367 100.35 112.267 97.6501 112.267 94.7501V78.6501C112.267 77.4501 111.767 76.3501 110.967 75.5501L94.3667 58.9501C93.8667 58.3501 93.0667 58.1501 92.2667 58.2501V33.7501C92.2667 31.3501 90.2667 29.3501 87.8667 29.3501H33.2667V52.5501C33.2667 52.8501 33.0667 53.0501 32.7667 53.0501H21.4666C20.8666 53.0501 20.3666 53.3501 19.9666 53.7501C19.5666 54.2501 19.3666 54.8501 19.4666 55.4501C20.2666 60.5501 24.6666 64.1501 30.6666 64.8501C31.0666 64.8501 31.2666 65.3501 30.9666 65.6501L27.4666 69.1501C25.4666 71.1501 25.3667 74.3501 27.3667 76.3501L30.9666 79.9501C31.0666 80.0501 31.0666 80.2501 30.9666 80.3501L27.4666 83.8501C26.4666 84.8501 25.9666 86.1501 25.9666 87.4501C25.9666 88.8501 26.4667 90.0501 27.3667 91.0501L30.3667 94.0501C30.4667 94.1501 30.4667 94.3501 30.3667 94.5501L27.3667 97.5501C25.5667 99.3501 25.5667 102.25 27.2667 104.05L32.5666 109.35C33.0666 109.85 33.2667 110.45 33.2667 111.15V117.75C33.2667 120.15 35.2666 122.15 37.6666 122.15H53.8667C54.8667 122.15 55.7667 122.55 56.3667 123.25L82.2667 149.15C82.8667 149.75 83.7667 149.75 84.3667 149.15L63.4666 128.25C61.2666 126.05 62.7666 122.25 65.9666 122.25H77.9666C79.8666 122.25 81.3667 123.75 81.3667 125.65V127.05C81.3667 127.85 82.0667 128.55 82.8667 128.55V117.65C82.8667 110.45 85.6667 103.65 90.7667 98.5501L95.0666 94.2501C95.9666 93.3501 96.4666 92.1501 96.4666 90.8501V79.6501C96.4666 78.3501 95.9666 77.2501 95.0666 76.2501C92.9666 74.0501 88.3666 68.0501 91.5666 60.5501C91.6666 60.2501 91.9667 60.0501 92.2667 60.0501C92.5667 59.9501 92.8666 60.0501 93.0666 60.2501L109.667 76.8501C110.167 77.3501 110.567 78.1501 110.567 78.9501V95.0501C110.567 98.2501 111.867 101.35 114.167 103.65L122.067 111.55C122.767 110.75 122.767 109.75 122.167 109.15ZM20.9666 55.2501C20.9666 55.0501 20.9666 54.9501 21.0666 54.7501C21.1666 54.6501 21.2667 54.5501 21.3667 54.5501H32.2667C32.7667 54.5501 33.2667 54.9501 33.2667 55.5501V60.6501C33.2667 62.3501 31.6666 63.6501 29.9666 63.2501L28.8667 62.9501C24.5667 61.8501 21.6666 59.0501 20.9666 55.2501ZM28.4666 75.2501C27.0666 73.8501 27.1666 71.5501 28.5666 70.1501L30.3667 68.3501C31.4667 67.2501 33.1667 67.2501 34.2667 68.3501L37.1666 71.2501C39.4666 73.5501 40.8666 80.2501 39.0666 84.0501C38.9666 84.3501 38.6667 84.5501 38.3667 84.5501C38.1667 84.5501 37.8666 84.5501 37.6666 84.3501L28.4666 75.2501ZM28.4666 89.9501C27.7666 89.2501 27.4666 88.3501 27.4666 87.4501C27.4666 86.4501 27.8666 85.5501 28.5666 84.8501L29.5666 83.8501C31.0666 82.3501 33.4666 82.3501 34.9666 83.8501L36.5666 85.4501C36.6666 85.5501 36.7667 85.6501 36.8667 85.7501C37.5667 86.3501 38.0666 87.1501 38.4666 87.9501C39.8666 90.9501 40.3666 95.7501 39.0666 98.7501C38.9666 99.0501 38.6667 99.2501 38.3667 99.2501C38.1667 99.2501 37.8666 99.2501 37.6666 99.0501L28.4666 89.9501ZM36.8667 111.05C36.7667 111.05 36.4667 111.05 36.3667 110.85L28.3667 102.85C27.1667 101.65 27.2666 99.7501 28.4666 98.5501L29.3667 97.6501C30.6667 96.3501 32.7666 96.3501 34.0666 97.6501L35.6666 99.2501C35.6666 99.2501 35.9666 99.5501 36.0666 99.6501C37.8666 101.85 38.8666 107.45 37.4666 110.55C37.2666 110.85 37.0667 110.95 36.8667 111.05ZM88.2667 65.2501V66.2501V97.4501C88.2667 98.4501 87.9667 99.4501 87.3667 100.25C84.0667 104.55 82.0666 109.75 81.6666 115.25V115.35C81.5666 116.95 80.2666 118.15 78.6666 118.15H78.0666H38.4666C37.7666 118.15 37.2667 117.65 37.2667 116.95V112.95C37.2667 112.75 37.3666 112.55 37.5666 112.55C38.0666 112.35 38.4666 111.95 38.6666 111.45C39.9666 108.55 39.5667 104.35 38.3667 101.35C38.3667 101.25 38.3666 101.05 38.5666 100.95C39.2666 100.75 39.8666 100.25 40.1666 99.6501C41.8666 95.8501 41.0666 89.9501 39.0666 86.6501C38.9666 86.4501 38.9666 86.1501 39.1666 86.0501C39.5666 85.8501 39.8666 85.4501 40.0666 84.9501C42.0666 80.4501 40.5667 73.1501 37.8667 70.4501C37.3667 69.9501 37.0666 69.1501 37.0666 68.4501V33.6501H86.8667C87.5667 33.6501 88.0666 34.1501 88.0666 34.8501V65.2501H88.2667ZM92.2667 77.8501C92.2667 76.8501 93.4666 76.3501 94.1666 77.0501C94.7666 77.6501 95.0666 78.5501 95.0666 79.3501V90.5501C95.0666 91.4501 94.7666 92.2501 94.1666 92.8501C93.4666 93.5501 92.2667 93.0501 92.2667 92.0501V77.8501Z" fill="#121212"/>
</svg>
