<svg width="161" height="160" viewBox="0 0 161 160" fill="none" xmlns="http://www.w3.org/2000/svg">
<path fill-rule="evenodd" clip-rule="evenodd" d="M86.2332 80.3887C82.2332 80.3887 80.8332 76.7887 80.7332 72.6887L78.2795 81.1578L74.9331 72.9887L73.9331 71.8887C75.2331 75.5887 74.3331 81.9887 70.4331 84.5887L77.5331 83.2887L78.0011 82.1187L77.6332 83.3887L86.9331 80.8887L86.2332 80.3887ZM78.0011 82.1187L78.2795 81.1578L78.3331 81.2887L78.0011 82.1187ZM98.4331 88.2887C94.9331 90.7887 89.0331 92.8887 89.0331 92.8887L95.5331 87.4887L98.7332 83.4887L99.6332 79.8887C101.433 79.7887 102.733 85.1887 98.4331 88.2887ZM106.333 109.789C105.933 106.989 102.933 107.989 100.833 109.089V107.789L105.333 103.189L107.333 103.589V108.889L106.333 109.789ZM73.1332 127.989L73.8331 126.989L75.9331 125.389L78.4331 119.589L79.7332 109.889V98.9887L80.7332 96.2887L84.3331 94.2887L86.5331 94.7887C86.5331 94.7887 85.5332 101.289 85.7332 101.489C85.9332 101.689 86.5331 106.289 86.5331 106.289L88.1332 107.089L90.0331 106.289V114.789C90.0331 119.989 86.8331 124.689 81.9331 126.589L74.2332 129.489C73.4332 129.789 72.6332 128.789 73.1332 127.989ZM86.633 86.7886H86.6331C86.7331 86.7886 86.933 86.6887 86.933 86.6887L93.3331 84.1887C93.8331 83.9887 94.133 83.4886 94.033 82.8886C93.833 81.6886 93.833 80.3886 94.533 79.3886L94.1331 79.0886C93.3331 80.2886 93.333 81.6886 93.533 82.9886C93.633 83.2886 93.4331 83.5887 93.1331 83.6887L86.7331 86.1887C86.6331 86.2887 86.533 86.2887 86.433 86.1887C86.333 86.0887 86.2331 85.9886 86.2331 85.8886C85.9331 84.9886 85.933 82.6886 86.533 81.4886L86.033 81.2886C85.433 82.5886 85.4331 84.9886 85.7331 86.0886C85.8331 86.3886 86.0331 86.5887 86.2331 86.6887C86.3331 86.7886 86.533 86.7886 86.633 86.7886Z" fill="#CCCCCC"/>
<path d="M44.5332 63.4886C49.5332 68.4886 49.5332 76.6886 44.5332 81.6886C41.8332 84.3886 35.5332 90.6886 35.5332 90.6886C35.5332 90.6886 28.7333 83.9886 26.3333 81.6886C21.3333 76.6886 21.3333 68.4886 26.3333 63.4886C31.3333 58.3886 39.5332 58.3886 44.5332 63.4886Z" fill="#FFE799"/>
<path fill-rule="evenodd" clip-rule="evenodd" d="M108.233 90.3889L110.633 92.7889C112.433 94.5889 112.433 97.4889 110.433 99.2889L107.833 101.889C107.733 102.089 107.633 102.289 107.633 102.489V114.089C107.633 116.789 107.033 119.389 105.833 121.689L102.533 127.989C101.733 129.489 101.333 131.189 101.333 132.889V144.789C101.333 145.589 100.633 146.289 99.8332 146.289V132.489C99.8332 130.589 100.333 128.589 101.233 126.889L104.533 120.589C105.633 118.389 106.233 116.089 106.233 113.689V106.589C106.233 105.289 104.833 104.689 103.933 105.589L94.9332 114.589C94.4332 115.089 93.7332 115.389 93.0332 115.389H93.033C92.733 115.389 92.3331 115.389 91.9332 115.189C91.1332 114.789 90.5332 114.089 90.3332 113.289C89.8332 111.689 89.5332 109.789 89.7332 107.889C89.8332 107.489 89.5332 107.089 89.0332 107.289C88.7332 107.389 88.3332 107.489 88.0332 107.489C87.7332 107.489 87.3332 107.389 87.0332 107.289C86.4332 107.089 86.0332 106.589 85.7332 105.989C84.5332 103.489 84.5332 100.189 85.2332 97.1889C85.5332 95.7889 84.2332 94.6889 82.9332 95.1889C81.5332 95.6889 80.5332 97.1889 80.5332 98.7889V101.889C80.6332 112.589 80.6332 120.389 75.9332 126.489C75.4332 127.189 74.4332 127.289 73.8332 126.689C79.0363 120.995 79.035 113.277 79.0332 102.589C79.0332 102.39 79.0332 102.19 79.0332 101.989V98.8889C79.0332 96.6889 80.3332 94.6889 82.4332 93.8889C93.3332 89.5889 97.7332 85.8889 98.2332 80.4889C98.2332 80.1889 98.1332 79.7889 97.8332 79.5889C97.5332 79.2889 97.1332 79.1889 96.7332 79.2889L92.7835 80.2334C92.6593 80.3324 92.5225 80.3544 92.3989 80.3254L73.7332 84.7889C71.5332 85.2889 69.5332 86.5889 68.2332 88.3889L61.6333 97.3889C60.4333 98.9889 59.8332 100.889 59.8332 102.889V146.189C59.0332 146.189 58.3332 145.489 58.3332 144.689V114.489L53.0332 119.789L35.5332 102.289L13.1333 124.689L10.3333 121.889L35.5332 96.6888L53.0332 114.189L58.3332 108.889V102.889C58.3332 100.689 59.0332 98.3889 60.4332 96.5889L60.9332 95.8889C61.9332 94.4889 62.5332 92.6889 62.5332 90.8889V87.4889C62.5332 85.2889 62.2332 83.0889 61.7332 80.9889L53.8332 46.5889C53.0332 43.5889 54.4332 40.4889 56.9332 39.0889C58.3332 38.3889 59.9332 38.2889 61.4332 38.7889C63.0332 39.2889 64.3332 40.5889 65.0332 42.2889L77.7332 77.8889C77.8332 78.1889 78.3332 78.1889 78.4332 77.7889L84.3332 38.9889C84.5332 37.3889 85.4333 35.9889 86.6333 35.0889C87.7333 34.2889 89.1332 33.9889 90.4332 34.1889C93.2332 34.6889 95.2332 37.3889 95.0332 40.4889L92.6282 74.6938L116.833 50.4888L126.333 59.9888L147.033 38.3888C147.933 37.3888 149.533 37.5888 150.233 38.8888C150.633 39.6888 150.433 40.5888 149.833 41.2888L126.433 65.7888L116.833 56.1888L94.6957 78.3264L96.5332 77.8889C96.7331 77.7889 96.9331 77.7889 97.1331 77.7889H97.1333C98.5332 76.5889 100.333 76.0889 102.233 76.4889C103.433 76.7889 104.433 77.3889 105.233 78.1889L108.233 81.1889C110.033 83.0889 110.233 85.9889 108.733 87.9889L108.233 88.4889C108.225 88.5017 108.215 88.5154 108.206 88.5299C107.985 88.857 107.467 89.6229 108.233 90.3889ZM73.4332 83.4889L74.9332 83.0889C76.4332 82.7889 77.2332 81.1889 76.8332 79.7889L63.7332 42.9889C63.2332 41.6889 62.2332 40.6889 61.0332 40.2889C59.9332 39.8889 58.7332 39.9889 57.7332 40.4889C55.7332 41.4889 54.7332 43.9889 55.3332 46.2889L63.2332 80.6889C63.7332 82.9889 64.0332 85.2889 64.0332 87.5889V87.7889C64.0332 89.0889 65.6332 89.5889 66.3332 88.5889L67.0332 87.6889C68.6332 85.5889 70.9332 84.0889 73.4332 83.4889ZM82.5332 81.3889L87.4332 80.1889C89.4332 79.6889 90.8332 77.9889 90.8332 75.9889L93.3332 40.5889C93.5332 38.2889 92.0332 36.1889 90.0332 35.8889C89.1332 35.7889 88.2332 35.9889 87.4332 36.5889C86.5332 37.1889 85.9332 38.2889 85.7332 39.4889L79.7332 78.8889C79.5332 80.3889 80.9332 81.7889 82.5332 81.3889ZM87.9954 106.294C88.1288 106.311 88.3811 106.341 88.6333 106.089L107.133 87.6889C108.533 86.2889 108.433 83.8889 107.033 82.4889L103.933 79.3889C103.133 78.4889 102.033 78.0889 100.933 78.0889C100.033 78.0889 99.3333 79.0889 99.6333 79.9889C99.7332 80.1889 99.7332 80.5887 99.7332 80.8887V80.8889C99.2332 86.1889 95.2332 89.7889 89.0332 92.8889C86.7332 95.3889 85.4332 101.889 87.2332 105.789C87.3332 105.989 87.6332 106.189 87.9332 106.289C87.9491 106.289 87.9701 106.291 87.9954 106.294ZM94.0332 113.889L109.633 98.2889C110.833 97.0889 110.733 95.0889 109.533 93.7889L108.933 93.1889C107.533 91.6889 105.133 91.6889 103.633 93.1889L94.5332 102.289C93.8332 102.989 92.4333 104.689 92.1333 105.389C90.9333 107.989 91.2332 110.989 91.9332 113.289C92.0332 113.689 92.4332 114.089 92.8332 114.189C93.2332 114.289 93.7332 114.189 94.0332 113.889Z" fill="#121212"/>
<path d="M125.833 17.2889C130.833 22.2889 130.833 30.4889 125.833 35.4889C123.133 38.1889 116.833 44.4889 116.833 44.4889C116.833 44.4889 110.033 37.7889 107.633 35.4889C102.633 30.4889 102.633 22.2889 107.633 17.2889C112.633 12.1889 120.733 12.1889 125.833 17.2889Z" fill="#FFE799"/>
<path d="M116.333 20L116.333 23" stroke="#E0AD00" stroke-width="1.5"/>
<path d="M116.333 32L116.333 34" stroke="#E0AD00" stroke-width="1.5"/>
<path d="M119.111 22.3335H114.944C114.429 22.3335 113.934 22.5793 113.57 23.0169C113.205 23.4545 113 24.048 113 24.6668C113 25.2857 113.205 25.8792 113.57 26.3167C113.934 26.7543 114.429 27.0002 114.944 27.0002H117.722C118.238 27.0002 118.732 27.246 119.097 27.6836C119.462 28.1212 119.667 28.7147 119.667 29.3335C119.667 29.9523 119.462 30.5458 119.097 30.9834C118.732 31.421 118.238 31.6668 117.722 31.6668H113" stroke="#E0AD00" stroke-width="1.5"/>
<path d="M39.9998 68.3335L30.6665 77.6668" stroke="#E0AD00" stroke-width="1.5"/>
<path d="M31.6667 70.9998C32.5871 70.9998 33.3333 70.2536 33.3333 69.3332C33.3333 68.4127 32.5871 67.6665 31.6667 67.6665C30.7462 67.6665 30 68.4127 30 69.3332C30 70.2536 30.7462 70.9998 31.6667 70.9998Z" stroke="#E0AD00" stroke-width="1.5"/>
<path d="M38.9999 78.3333C39.9204 78.3333 40.6666 77.5871 40.6666 76.6667C40.6666 75.7462 39.9204 75 38.9999 75C38.0794 75 37.3333 75.7462 37.3333 76.6667C37.3333 77.5871 38.0794 78.3333 38.9999 78.3333Z" stroke="#E0AD00" stroke-width="1.5"/>
</svg>
