<svg width="160" height="160" viewBox="0 0 160 160" fill="none" xmlns="http://www.w3.org/2000/svg">
<path d="M56.3 94.7998C65.3 99.4998 75.8 96.9998 83.1 91.6998C84.8 90.4998 86.9001 90.2998 88.8001 91.1998L100.6 97.1998L86.7 83.3998C86.3 82.9998 85.7 82.9998 85.2 83.2998C82.4 85.5998 72.8001 93.3998 68.2001 94.5998C61.6001 96.2998 56.3 94.7998 56.3 94.7998Z" fill="white"/>
<path fill-rule="evenodd" clip-rule="evenodd" d="M89.9 14.8999C85.9 14.8999 82.3 16.9999 80 20.3999C77.7 17.0999 74.1 14.8999 70.1 14.8999C63.1 14.8999 57.4 21.4999 57.4 29.6999C57.4 46.3999 80 56.4999 80 56.4999C80 56.4999 102.6 46.4999 102.6 29.6999C102.6 21.5999 96.9 14.8999 89.9 14.8999Z" fill="#FFE799"/>
<path d="M79.5 42.8001L67.3 30.7001L70.1 27.9001L79.6 37.3001L104.8 13.5001C105.6 12.7001 106.9 12.8001 107.6 13.6001C108.4 14.4001 108.3 15.7001 107.5 16.4001L79.5 42.8001Z" fill="#E0AD00"/>
<path fill-rule="evenodd" clip-rule="evenodd" d="M60.1 89.9002C60.4 90.2002 60.7 90.4002 61.1 90.4002C61.3 90.4002 61.5 90.4002 61.8 90.1002L69.9 84.5002C70.4 84.1002 70.5 83.4002 70.2 82.8002C69.2 81.1002 67.5 79.9002 65.1 79.2002L65 79.7002C67.2 80.3002 68.8 81.4002 69.8 83.1002C70 83.5002 69.9 83.9002 69.6 84.1002L61.5 89.7002C61.2 90.0002 60.7 89.9002 60.5 89.6002C59.1 87.8002 57 86.8002 54.9 86.9002V87.4002C56.9 87.3002 58.8 88.2002 60.1 89.9002ZM117.5 96.0002C122.119 96.4575 125.295 100.45 128.635 104.648C132.598 109.629 136.791 114.9 143.9 114.9H119.7L99.4 94.6002L117.5 96.0002ZM47.5 117.6C46.9 121.8 42.5 123 41.3 119.2C40.6 122.3 42.9 125.7 47.5 124.5V117.6ZM67.2 144.9C70.7 144.9 73.2 142.5 73.2 139.1L77.1 141.7C75.4 145.9 71.1 146.4 67.2 144.9ZM48.3 125.8C49.5 129.6 54.2 128.4 54.8 124.2V131.1C50 132.3 47.6 128.9 48.3 125.8ZM62 131.3C61.4 135.5 56.7 136.7 55.5 132.9C54.8 136.1 57.2 139.5 62 138.2V131.3Z" fill="#CCCCCC"/>
<path d="M120.1 112.8L107.7 100.2C106 98.5001 107.4 95.5001 109.8 95.7001C112.1 95.9001 114.7 96.0001 117.5 96.0001C117.5 95.2001 116.8 94.5001 116 94.5001C107.1 94.4001 101.3 93.2001 97.3 91.5001L96.3 91.0001C92 89.0001 90 86.1001 88 83.3001C87.6 82.8001 87.1 82.4001 86.4 82.3001C85.8 82.2001 85.1 82.3001 84.6 82.7001C83.5 83.5001 81.9 84.7001 80.2 86.0001C77.8 87.8001 75.2 89.8001 73 91.4001C68.9 94.3001 59.8 96.4001 53.6 91.4001C53.2 91.1001 53 90.7001 53 90.2001C53 89.7001 53.2 89.3001 53.6 89.0001L86.7 64.3001C89.1 62.5001 91.9 61.6001 94.9 61.6001H146C146 60.8001 145.3 60.1001 144.5 60.1001H94.9C92.4 60.1001 90 60.7001 87.8 61.9001C87.1 62.3001 86.3 62.5001 85.4 62.5001H18C15.8 62.5001 14 64.3001 14 66.5001H74.2C76.5 66.5001 77.4 69.4001 75.6 70.7001L52.6 87.8001C51.7 88.4001 51.3 89.5001 51.4 90.5001C51.5 91.4001 52.1 92.2001 52.8 92.7001C55.8 95.0001 59.3 95.9001 62.7 95.9001C67.1 95.9001 71.2 94.4001 73.8 92.6001C76 91.0001 78.7 89.0001 81.1 87.2001C82.8 85.9001 85.9 83.7001 86.2 83.7001C86.4 83.7001 86.7 83.9001 86.8 84.1001C88.2 86.0001 89.6 87.8001 91.3 89.4001C91.9 89.9001 92.5 90.4001 93 91.0001L117.2 115.5C118.8 117.1 118.8 119.7 117.2 121.3L114.9 123.7C114.1 124.5 112.9 124.5 112.1 123.7L104.1 115.6C102.5 117.2 102.5 119.7 104.1 121.3L107.4 124.7C108.2 125.5 108.2 126.8 107.4 127.6L105 130C104.2 130.8 103 130.8 102.2 130L94.2 121.9C92.6 123.5 92.6 126 94.2 127.6L97.7 131.2C98.4 131.9 98.4 133 97.7 133.7L95.1 136.4C94.3 137.2 93.1 137.2 92.3 136.4L84.3 128.3C82.7 129.9 82.7 132.4 84.3 134L88 137.8C88.6 138.4 88.5 139.3 87.9 139.8C86.7 140.9 85.1 141.4 83.5 141.4C81.6 141.4 79.9 140.7 78.6 139.4L74.8 135.5L74.6 134.8C73.7 130.5 70.5 124.9 65.6 123.2H65.5C63.7 119.8 61.1 117.3 58.2 116.3H58.1C56.4 113.2 54.1 110.8 51.5 109.7C49.7 106.2 46.9 103.5 43.9 102.5C43 102.2 42 102.3 41.2 102.9C40.5 103.4 40.1 104.1 40.1 104.9C40.1 105.8 39.2 106.5 38.3 106.5H14C14 108.7 15.8 110.5 18 110.5H40V119.9C40 123.1 42.8 125.6 46.3 125.6H47V126.8C47 130 49.8 132.5 53.2 132.5H54.3V133.7C54.3 136.9 57.1 139.4 60.5 139.4H61.6V140.6C61.6 143.8 64.4 146.3 67.8 146.3H72.2C73.4 146.3 74.6 145.8 75.5 144.9L76.1 144.3C76.6 143.7 77.5 143.6 78.2 144C79.7 144.8 81.5 145.3 83.3 145.3C86.2 145.3 89 144.1 91 142.1L92.3 140.8L92.4 140.9C93.7 141.2 95.1 141 96.5 140.2C97.1 139.9 97.5 139.5 98 139L102.4 134.6C103.7 134.8 105.1 134.7 106.5 133.9C107 133.6 107.5 133.2 108 132.7L112.4 128.2C113.7 128.4 115.1 128.3 116.5 127.5C117 127.2 117.5 126.8 118 126.4L120.2 124.2C121.7 122.7 122.4 120.7 122.5 118.8C122.6 117.2 123.8 115.9 125.4 115.9H144.6C145.4 115.9 146.1 115.2 146.1 114.4H123.9C122.4 114.4 121.1 113.8 120.1 112.8ZM47 111.7C47 111.7 47 122.8 47 123.4C47 124.1 46.4 124.1 46.4 124.1C43.7 124.1 41.6 122.2 41.6 119.9V104.8C41.6 104.4 41.9 104.1 42 104C42.4 103.7 42.9 103.7 43.4 103.8C45.7 104.6 47.9 106.5 49.5 109.1C49 109.2 48.5 109.3 48.1 109.6C47.4 110.2 47 110.9 47 111.7ZM54.3 118.6C54.3 118.6 54.3 128.6 54.3 129.8C54.3 131 53.2 131 53.2 131C50.6 131 48.5 129.1 48.5 126.8V111.7C48.5 111.3 48.8 111 49 110.9C49.4 110.6 49.9 110.6 50.3 110.7C52.6 111.5 54.8 113.5 56.4 116.1C56.1 116.2 55.8 116.3 55.5 116.5C54.7 117.1 54.3 117.8 54.3 118.6ZM61.7 125.5C61.7 125.5 61.7 135.3 61.7 136.6C61.7 137.9 60.6 137.9 60.6 137.9C58 137.9 55.9 136 55.9 133.7V118.6C55.9 118.2 56.2 117.9 56.4 117.8C56.8 117.5 57.3 117.5 57.7 117.6C60 118.4 62.2 120.4 63.8 123C63.5 123.1 63.2 123.2 62.9 123.4C62.1 124 61.7 124.7 61.7 125.5ZM74.7 143.8L74.6 143.9C74 144.5 73.2 144.9 72.3 144.9H68C65.4 144.9 63.3 143 63.3 140.7V125.6C63.3 125.2 63.6 124.9 63.8 124.8C64.2 124.5 64.7 124.5 65.1 124.6C70.1 126.3 73.3 133 73.3 136.8V139.1C73.3 139.9 74 140.6 74.8 140.6C75.5 141.4 75.5 142.9 74.7 143.8Z" fill="#121212"/>
</svg>
